<?xml version="1.0" encoding="utf-8"?>
<!-- Generator: Adobe Illustrator 24.3.0, SVG Export Plug-In . SVG Version: 6.00 Build 0)  -->
<svg version="1.1" id="Layer_1" xmlns="http://www.w3.org/2000/svg" xmlns:xlink="http://www.w3.org/1999/xlink" height="24px" viewBox="0 0 24 24" width="24px" style="enable-background:new 0 0 24 24;" xml:space="preserve">
<style type="text/css">
	.st0{fill:none;}
	.st1{fill:currentColor;}
</style>
<path class="st0" d="M0,0h24v24H0V0z"/>
<path class="st1" d="M20.9,11c-0.5-4.2-3.8-7.5-7.9-7.9V1h-2v2.1C6.8,3.5,3.5,6.8,3.1,11H1v2h2.1c0.5,4.2,3.8,7.5,7.9,7.9V23h2v-2.1
	c4.2-0.5,7.5-3.8,7.9-7.9H23v-2H20.9z M12,19c-3.9,0-7-3.1-7-7s3.1-7,7-7s7,3.1,7,7S15.9,19,12,19z"/>
</svg>
